<svg width="19" height="19" viewBox="0 0 19 19" fill="none" xmlns="http://www.w3.org/2000/svg">
<path d="M9.32809 4.53125C10.6556 4.53125 11.8443 4.98875 12.7818 5.88125L15.3506 3.3125C13.7906 1.86125 11.7543 0.96875 9.32809 0.96875C5.81059 0.96875 2.76934 2.98625 1.28809 5.92625L4.28059 8.2475C4.98934 6.11375 6.98059 4.53125 9.32809 4.53125Z" fill="#EA4335"/>
<path d="M17.9456 10.175C17.9456 9.58625 17.8894 9.01625 17.8031 8.46875H9.32812V11.8513H14.1806C13.9631 12.9613 13.3331 13.9063 12.3881 14.5438L15.2869 16.7938C16.9781 15.2263 17.9456 12.9088 17.9456 10.175Z" fill="#4285F4"/>
<path d="M4.27687 11.69C4.09687 11.1463 3.99188 10.5688 3.99188 9.96877C3.99188 9.36877 4.09312 8.79127 4.27687 8.24752L1.28437 5.92627C0.673125 7.14127 0.328125 8.51377 0.328125 9.96877C0.328125 11.4238 0.673125 12.7963 1.28812 14.0113L4.27687 11.69Z" fill="#FBBC05"/>
<path d="M9.32817 18.9688C11.7582 18.9688 13.8019 18.17 15.2869 16.79L12.3882 14.54C11.5819 15.0838 10.5432 15.4025 9.32817 15.4025C6.98067 15.4025 4.98942 13.82 4.27692 11.6863L1.28442 14.0075C2.76942 16.9513 5.81067 18.9688 9.32817 18.9688Z" fill="#34A853"/>
</svg>
